<svg xmlns="http://www.w3.org/2000/svg" viewBox="0 0 24 24" id="people">
  <path d="M16.5 6.6c0-2.4-2-4.4-4.5-4.4s-4.5 2-4.5 4.4C7.5 9 9.5 11 12 11s4.5-2 4.5-4.4zm-7 0c0-1.3 1.1-2.4 2.5-2.4s2.5 1.1 2.5 2.4S13.4 9 12 9 9.5 7.9 9.5 6.6zm-4.9 9.7-.5 1.9c-.3.9-.1 1.9.5 2.7C5.2 21.6 6 22 7 22h10c.9 0 1.8-.4 2.3-1.2.6-.8.8-1.8.5-2.7l-.5-1.9c-.6-2.5-2.8-4.2-5.3-4.2h-4c-2.5 0-4.7 1.7-5.4 4.3zM6 18.7l.5-1.9C7 15.1 8.4 14 10 14h4c1.6 0 3 1.1 3.5 2.8l.5 1.9c.1.3 0 .7-.2 1-.1.1-.4.3-.8.3H7c-.4 0-.6-.2-.7-.4-.3-.2-.4-.6-.3-.9z"></path>
</svg>
